<svg xmlns="http://www.w3.org/2000/svg" width="512" height="512" style="overflow: visible;" viewBox="0 0 512 512" 
 x="0" y="0" 
 data-bbox="46.48071216617211 281.1033612087671 340.654068623567 77.57082965320967">
 <defs id="_RtoJiy_O7iCOOvzcJ7nDs" transform="matrix(0.4663619101047516, 0, 0, 0.4663619101047516, -11.645149230957031, 133.17471313476562)" data-uid="o_f1j3bm50i_4"></defs>
 <g id="_vof24r-SzAwhVc8QPA0O0" transform="matrix(0.9862344264984131, 0, 0, 0.9862344264984131, -0.8585458993911743, 16.437902450561523)" data-uid="o_f1j3bm50i_5">
 <path id="_B3bsJXnS1r13NAsvF8ZdX" fill="#9a0606" d="M31.197 27.484l-3.894 2.757l-0.179 0.127L12.068 40.763c-1.024 0.727-2.395 0.394-3.053-0.738   L2.232 28.331l-0.686 0.473c-1.022 0.725-1.324 2.242-0.667 3.373l7.145 12.319c0.658 1.132 2.029 1.465 3.053 0.738l15.059-10.394   l0.178-0.127l3.893-2.758c0.514-0.357 1.035-1.193 1.158-1.849l0.721-3.749C31.857 26.813 31.531 27.251 31.197 27.484z" transform="matrix(1.921039342880249, 0, 0, 1.921039342880249, 46.97965621948242, 259.3768005371094)" data-uid="o_f1j3bm50i_6"></path><path id="_P61sX6l1mSpTJvmCZVXrN" fill="#cf1717" d="M49.24 4.607c-1.012-0.964-5.137 1.237-7.986 4.814c-2.135 2.677-4.471 3.854-6.938 4.466   c-0.018-0.033-0.029-0.076-0.046-0.106l-1.87-3.225c-0.331-0.565-1.078-1.15-1.677-1.296l-6.06-1.508   c-0.592-0.146-1.498 0.027-2.009 0.39l-3.891 2.757l-0.176 0.122L3.526 21.419c-1.023 0.725-1.324 2.241-0.667 3.373l7.145 12.318   c0.658 1.133 2.029 1.466 3.053 0.739l15.059-10.395l0.178-0.126l3.894-2.758c0.513-0.358 1.034-1.193 1.158-1.85l1.29-6.715   c0.068-0.354 0.047-0.805-0.033-1.236c4.479-0.666 10.034-2.272 13.201-6.351C49.709 5.966 49.637 4.992 49.24 4.607z    M30.047 17.136c-0.936 0.66-2.176 0.361-2.776-0.668c-0.601-1.035-0.327-2.41 0.607-3.07c0.932-0.663 2.179-0.365 2.778 0.671   c0.072 0.127 0.133 0.261 0.181 0.396c-0.411 0.047-0.823 0.09-1.237 0.133l-1.813 0.197l0.034 0.311l0.039-0.004l0.025 0.217   c0.156-0.019 0.482-0.033 0.92-0.048c0.551-0.021 1.297-0.053 2.156-0.11C30.993 15.927 30.674 16.692 30.047 17.136z    M30.913 14.769c0.005 0.027 0.015 0.053 0.021 0.08c-0.584 0.039-1.11 0.066-1.559 0.086l0.25-0.026   C30.058 14.863 30.486 14.817 30.913 14.769z M47.588 8.216c-3.114 4.016-8.621 5.594-13.059 6.25   c-0.027-0.102-0.055-0.196-0.088-0.29c2.49-0.627 4.853-1.829 7.026-4.55c2.808-3.521 6.776-5.551 7.585-4.781   C49.207 4.992 49.556 5.676 47.588 8.216z" transform="matrix(1.921039342880249, 0, 0, 1.921039342880249, 47.3654899597168, 259.94537353515625)" data-uid="o_f1j3bm50i_7"></path></g><path text="TAG SHOP" text-anchor="middle" font-size="100" letter-spacing="0" side="left" offset="0.5" dx="0" dy="0" space="preserve" href="" font-family="Exo 2" font-scale="contain" transform="matrix(0.5049248337745667, 0, 0, 0.5049248337745667, 276.30377197265625, 337.3086853027344)" x="0" y="0" fill="#4a5053" data-fl-textpath="" id="_R8ttM4jeFqMpDY95yXWfI" font-weight="400" font-style="normal" data-uid="o_f1j3bm50i_8" d="M-168.2-69L-168.2-61.2L-190.5-61.2L-190.5 0L-199.3 0L-199.3-61.2L-221.5-61.2L-221.5-69L-168.2-69ZM-119.6 0L-126.39999999999999-21.6L-154.79999999999998-21.6L-161.6 0L-170.7 0L-148.5-66.6Q-147.89999999999998-69 -145.2-69L-145.2-69L-136-69Q-133.29999999999998-69 -132.7-66.6L-132.7-66.6L-110.49999999999999 0L-119.6 0ZM-152.39999999999998-29.2L-128.79999999999998-29.2L-137.5-56.6Q-138.39999999999998-59.2 -139.2-62.2L-139.2-62.2L-142-62.2L-143.7-56.6L-152.39999999999998-29.2ZM-53.89999999999998 0L-60.299999999999976 0L-61.299999999999976-7.3Q-70.09999999999998 1.3 -81.89999999999998 1.3L-81.89999999999998 1.3Q-93.39999999999998 1.3 -98.54999999999998-7.3Q-103.69999999999997-15.9 -103.69999999999997-34.7L-103.69999999999997-34.7Q-103.69999999999997-55 -97.39999999999998-62.65Q-91.09999999999998-70.3 -74.89999999999998-70.3L-74.89999999999998-70.3Q-63.99999999999998-70.3 -55.699999999999974-68.2L-55.699999999999974-68.2L-56.59999999999998-61.6Q-64.99999999999997-62.4 -74.39999999999998-62.4L-74.39999999999998-62.4Q-82.29999999999998-62.4 -86.34999999999998-60.35Q-90.39999999999998-58.3 -92.39999999999998-52.2Q-94.39999999999998-46.1 -94.39999999999998-34.1L-94.39999999999998-34.1Q-94.39999999999998-18.8 -91.09999999999998-12.6Q-87.79999999999998-6.4 -79.49999999999997-6.4L-79.49999999999997-6.4Q-71.69999999999997-6.4 -62.49999999999998-13.1L-62.49999999999998-13.1L-62.49999999999998-39.9L-53.89999999999998-39.9L-53.89999999999998 0ZM 8.600000000000026-29.2L 8.600000000000026-29.2L-5.699999999999971-32.8Q-12.999999999999972-34.6 -16.14999999999997-39.25Q-19.299999999999972-43.9 -19.299999999999972-52L-19.299999999999972-52Q-19.299999999999972-58 -18.049999999999972-61.65Q-16.799999999999972-65.3 -13.749999999999972-67.15Q-10.699999999999973-69 -6.949999999999971-69.6Q-3.199999999999971-70.2  3.1000000000000263-70.2L 3.1000000000000263-70.2Q 15.30000000000003-70  23.600000000000026-68.2L 23.600000000000026-68.2L 23.000000000000025-61.8Q 13.30000000000003-62.3  3.5000000000000284-62.3L 3.5000000000000284-62.3Q-0.8999999999999737-62.3 -2.9999999999999716-62.1Q-5.099999999999973-61.9 -7.099999999999973-60.9Q-9.099999999999973-59.9 -9.749999999999972-57.75Q-10.399999999999972-55.6 -10.399999999999972-51.8L-10.399999999999972-51.8Q-10.399999999999972-46.3 -8.44999999999997-44Q-6.499999999999972-41.7 -1.6999999999999709-40.5L-1.6999999999999709-40.5L 12.30000000000003-37Q 20.000000000000025-35.1  23.100000000000026-30.5Q 26.200000000000028-25.9  26.200000000000028-17.6L 26.200000000000028-17.6Q 26.200000000000028-6.2  21.05000000000003-2.5Q 15.90000000000003 1.2  3.1000000000000263 1.2L 3.1000000000000263 1.2Q-7.799999999999972 1.2 -18.299999999999972-0.7L-18.299999999999972-0.7L-17.699999999999974-7.2Q-0.8999999999999737-6.6  3.400000000000027-6.7L 3.400000000000027-6.7Q 11.600000000000026-6.7  14.450000000000028-8.8Q 17.30000000000003-10.9  17.30000000000003-17.8L 17.30000000000003-17.8Q 17.30000000000003-23.5  15.350000000000026-25.75Q 13.40000000000003-28  8.600000000000026-29.2ZM 80.60000000000002-69L 89.40000000000003-69L 89.40000000000003 0L 80.60000000000002 0L 80.60000000000002-33.1L 48.80000000000003-33.1L 48.80000000000003 0L 40.00000000000003 0L 40.00000000000003-69L 48.80000000000003-69L 48.80000000000003-40.7L 80.60000000000002-40.7L 80.60000000000002-69ZM 110.25000000000003-62.45Q 116.30000000000003-70.3  131.50000000000003-70.3Q 146.70000000000002-70.3  152.70000000000002-62.45Q 158.70000000000002-54.6  158.70000000000002-34.5Q 158.70000000000002-14.4  152.70000000000002-6.55Q 146.70000000000002 1.3  131.50000000000003 1.3Q 116.30000000000003 1.3  110.25000000000003-6.55Q 104.20000000000002-14.4  104.20000000000002-34.5Q 104.20000000000002-54.6  110.25000000000003-62.45ZM 145.60000000000002-56.35Q 141.70000000000002-62.4  131.50000000000003-62.4Q 121.30000000000003-62.4  117.40000000000002-56.35Q 113.50000000000003-50.3  113.50000000000003-34.5Q 113.50000000000003-18.7  117.40000000000002-12.65Q 121.30000000000003-6.6  131.50000000000003-6.6Q 141.70000000000002-6.6  145.60000000000002-12.65Q 149.50000000000003-18.7  149.50000000000003-34.5Q 149.50000000000003-50.3  145.60000000000002-56.35ZM 182.40000000000003 0L 173.60000000000002 0L 173.60000000000002-69Q 182.00000000000003-69.9  197.30000000000004-69.9L 197.30000000000004-69.9Q 209.90000000000003-69.9  214.70000000000005-65.35Q 219.50000000000003-60.8  219.50000000000003-48.3Q 219.50000000000003-35.8  214.85000000000002-31.25Q 210.20000000000005-26.7  198.30000000000004-26.7L 198.30000000000004-26.7Q 190.10000000000002-26.7  182.40000000000003-27.6L 182.40000000000003-27.6L 182.40000000000003 0ZM 182.40000000000003-62.2L 182.40000000000003-34.3L 197.20000000000005-34.3Q 204.90000000000003-34.4  207.75000000000003-37.25Q 210.60000000000002-40.1  210.60000000000002-48.3Q 210.60000000000002-56.5  207.70000000000005-59.4Q 204.80000000000004-62.3  197.20000000000005-62.3L 197.20000000000005-62.3Q 186.30000000000004-62.3  182.40000000000003-62.2L 182.40000000000003-62.2Z"></path></svg>
 
